# xmcd
#
# Track frame offsets:
#	150
#	34621
#	56262
#	69977
#	86219
#	103346
#	129782
#	147054
#	176471
#	200488
#	221978
#	246082
#	268393
#	283576
#
# Disc length: 4744 seconds
#
# Revision: 0
# Processed by: cddbd v1.5.2PL0 Copyright (c) Steve Scherf et al.
# Submitted via: EasyCDDAExtractor 10.2.0.1
#
DISCID=d312860e
DTITLE=Dr. John - Mardi Gras Mambo
DYEAR=1973
DGENRE=Blues
TTITLE0=Instrumental
TTITLE1=Gris Gris Gumba Ya Ya
TTITLE2=Let The Good Times Roll
TTITLE3=Right Place Wrong Time
TTITLE4=Iko Iko
TTITLE5=Medley
TTITLE6=I've Been Hoodooed
TTITLE7=Loup Garou
TTITLE8=Wang Dang Doodle
TTITLE9=Junko Partner
TTITLE10=Qualified
TTITLE11=Walk On Guilded Splinters
TTITLE12=Mess Around
TTITLE13=Mardi Gras Day
EXTD=
EXTT0=
EXTT1=
EXTT2=
EXTT3=
EXTT4=
EXTT5=
EXTT6=
EXTT7=
EXTT8=
EXTT9=
EXTT10=
EXTT11=
EXTT12=
EXTT13=
PLAYORDER=
